<svg width="790" height="447" viewBox="0 0 790 447" fill="none" xmlns="http://www.w3.org/2000/svg">
<path d="M18.2929 277.292C18.6834 276.902 19.3166 276.902 19.7071 277.292L26.0711 283.656C26.4616 284.047 26.4616 284.68 26.0711 285.071C25.6805 285.461 25.0474 285.461 24.6569 285.071L19 279.414L13.3431 285.071C12.9526 285.461 12.3195 285.461 11.9289 285.071C11.5384 284.68 11.5384 284.047 11.9289 283.656L18.2929 277.292ZM466 411.999L465.353 411.237L466 411.999ZM592.189 397.496L592.032 396.508L592.189 397.496ZM294.5 225.999V226.999V225.999ZM20 278C20 280.193 20.0169 282.342 20.0506 284.447L18.0508 284.479C18.017 282.363 18 280.204 18 278H20ZM20.4504 296.55C20.6743 300.902 20.9802 305.035 21.3652 308.957L19.3747 309.152C18.9865 305.197 18.6784 301.033 18.4531 296.653L20.4504 296.55ZM22.8952 321C23.5699 325.236 24.3569 329.169 25.2504 332.811L23.308 333.288C22.4 329.586 21.6025 325.599 20.9201 321.314L22.8952 321ZM28.8023 344.395C30.391 348.576 32.1727 352.212 34.1292 355.345L32.4328 356.405C30.3975 353.145 28.5605 349.389 26.9327 345.105L28.8023 344.395ZM41.8628 364.498C45.012 367.168 48.4492 369.037 52.1456 370.197L51.5468 372.106C47.5945 370.865 43.9212 368.866 40.5691 366.023L41.8628 364.498ZM63.8996 371.643C67.6893 371.498 71.6803 370.843 75.8506 369.732L76.3655 371.665C72.0798 372.806 67.9402 373.49 63.9761 373.642L63.8996 371.643ZM87.3476 365.74C90.9226 364.239 94.592 362.48 98.3432 360.495L99.2786 362.263C95.4833 364.271 91.7598 366.057 88.1218 367.584L87.3476 365.74ZM108.97 354.42C112.362 352.347 115.805 350.126 119.29 347.778L120.408 349.436C116.901 351.799 113.433 354.036 110.012 356.126L108.97 354.42ZM129.366 340.734C132.625 338.379 135.912 335.935 139.22 333.418L140.431 335.01C137.111 337.535 133.811 339.989 130.537 342.355L129.366 340.734ZM148.909 325.899C152.094 323.382 155.292 320.815 158.497 318.212L159.758 319.764C156.547 322.372 153.342 324.945 150.149 327.468L148.909 325.899ZM168.008 310.405C171.161 307.795 174.315 305.163 177.464 302.524L178.749 304.057C175.597 306.698 172.44 309.332 169.284 311.946L168.008 310.405ZM186.88 294.61C190.03 291.958 193.17 289.312 196.294 286.687L197.581 288.218C194.458 290.842 191.319 293.487 188.168 296.14L186.88 294.61ZM205.748 278.775C208.942 276.116 212.114 273.494 215.257 270.924L216.523 272.473C213.386 275.038 210.219 277.656 207.027 280.313L205.748 278.775ZM224.853 263.181C228.137 260.571 231.381 258.038 234.577 255.602L235.79 257.193C232.606 259.62 229.372 262.144 226.097 264.747L224.853 263.181ZM244.492 248.262C247.962 245.777 251.363 243.437 254.683 241.272L255.776 242.947C252.483 245.094 249.107 247.417 245.657 249.888L244.492 248.262ZM265.267 234.83C269.11 232.678 272.821 230.827 276.379 229.332L277.154 231.176C273.679 232.636 270.036 234.451 266.244 236.575L265.267 234.83ZM288.254 225.613C290.413 225.211 292.497 224.999 294.5 224.999V226.999C292.637 226.999 290.676 227.196 288.621 227.579L288.254 225.613ZM294.5 224.999C296.534 224.999 298.52 225.09 300.458 225.268L300.276 227.259C298.399 227.087 296.475 226.999 294.5 226.999V224.999ZM311.951 227.472C315.766 228.615 319.367 230.135 322.772 231.992L321.815 233.748C318.528 231.956 315.055 230.49 311.377 229.388L311.951 227.472ZM332.47 238.577C335.439 241.021 338.233 243.748 340.871 246.717L339.375 248.046C336.8 245.146 334.08 242.492 331.199 240.12L332.47 238.577ZM348.065 255.928C350.235 259.064 352.288 262.376 354.238 265.834L352.495 266.816C350.572 263.405 348.552 260.146 346.421 257.066L348.065 255.928ZM359.582 276.178C361.219 279.622 362.779 283.17 364.273 286.796L362.424 287.558C360.941 283.96 359.395 280.445 357.775 277.036L359.582 276.178ZM368.467 297.614C369.786 301.218 371.055 304.875 372.282 308.564L370.384 309.196C369.162 305.522 367.9 301.884 366.589 298.301L368.467 297.614ZM375.817 319.601C376.959 323.292 378.07 326.995 379.159 330.69L377.241 331.256C376.153 327.566 375.045 323.872 373.906 320.192L375.817 319.601ZM382.391 341.806C383.469 345.548 384.533 349.26 385.594 352.924L383.673 353.48C382.611 349.814 381.546 346.099 380.469 342.359L382.391 341.806ZM388.858 364.02C389.991 367.789 391.131 371.476 392.289 375.058L390.386 375.673C389.222 372.075 388.079 368.374 386.943 364.595L388.858 364.02ZM396.021 385.979C397.383 389.725 398.783 393.3 400.237 396.67L398.401 397.463C396.928 394.05 395.514 390.437 394.141 386.663L396.021 385.979ZM405.235 406.956C407.221 410.54 409.313 413.733 411.54 416.475L409.988 417.736C407.67 414.883 405.514 411.586 403.485 407.925L405.235 406.956ZM419.77 424.021C422.932 426.015 426.353 427.224 430.103 427.534L429.938 429.527C425.846 429.189 422.119 427.866 418.703 425.713L419.77 424.021ZM441.161 426.079C444.321 425.065 447.695 423.531 451.308 421.418L452.317 423.144C448.603 425.317 445.095 426.918 441.772 427.983L441.161 426.079ZM460.717 414.999C462.227 413.833 463.772 412.58 465.353 411.237L466.647 412.761C465.044 414.123 463.475 415.396 461.939 416.582L460.717 414.999ZM465.353 411.237C466.891 409.93 468.41 408.623 469.909 407.317L471.223 408.825C469.718 410.137 468.193 411.449 466.647 412.761L465.353 411.237ZM478.664 399.486C481.594 396.795 484.441 394.107 487.205 391.423L488.598 392.858C485.82 395.555 482.96 398.256 480.017 400.959L478.664 399.486ZM495.495 383.139C498.278 380.274 500.969 377.414 503.57 374.562L505.048 375.91C502.433 378.778 499.727 381.652 496.93 384.532L495.495 383.139ZM511.272 365.832C513.881 362.773 516.386 359.724 518.792 356.686L520.36 357.928C517.939 360.985 515.418 364.052 512.794 367.129L511.272 365.832ZM525.85 347.421C528.213 344.191 530.463 340.977 532.604 337.779L534.266 338.892C532.109 342.113 529.843 345.35 527.464 348.602L525.85 347.421ZM538.929 327.869C540.985 324.48 542.919 321.113 544.735 317.771L546.492 318.726C544.661 322.096 542.711 325.491 540.639 328.906L538.929 327.869ZM550.072 307.316C551.8 303.699 553.389 300.116 554.844 296.568L556.695 297.327C555.225 300.91 553.62 304.528 551.877 308.178L550.072 307.316ZM558.96 285.613C560.245 281.844 561.378 278.122 562.365 274.45L564.297 274.969C563.297 278.684 562.151 282.449 560.853 286.259L558.96 285.613ZM564.997 263.09C565.757 259.169 566.349 255.316 566.781 251.534L568.768 251.761C568.33 255.595 567.73 259.5 566.96 263.47L564.997 263.09ZM567.625 239.862C567.742 235.873 567.676 231.978 567.439 228.183L569.435 228.059C569.676 231.915 569.743 235.872 569.624 239.921L567.625 239.862ZM566.142 216.594C565.499 212.664 564.664 208.866 563.65 205.209L565.577 204.675C566.611 208.402 567.462 212.271 568.115 216.271L566.142 216.594ZM559.881 194.159C558.374 190.478 556.67 186.98 554.789 183.677L556.527 182.687C558.451 186.066 560.193 189.642 561.732 193.401L559.881 194.159ZM548.354 173.997C545.942 170.878 543.348 168.002 540.596 165.387L541.973 163.937C544.802 166.624 547.464 169.576 549.936 172.774L548.354 173.997ZM531.554 158.11C528.314 155.926 524.925 154.053 521.417 152.509L522.222 150.679C525.842 152.271 529.335 154.202 532.672 156.452L531.554 158.11ZM510.44 148.86C506.705 147.999 502.876 147.49 498.984 147.351L499.055 145.352C503.075 145.496 507.03 146.022 510.889 146.911L510.44 148.86ZM487.428 148.023C483.694 148.589 479.928 149.496 476.154 150.762L475.518 148.866C479.4 147.564 483.278 146.629 487.128 146.046L487.428 148.023ZM465.51 155.298C462.192 157.019 458.884 159.032 455.602 161.348L454.449 159.714C457.802 157.348 461.187 155.288 464.589 153.522L465.51 155.298ZM446.515 168.62C445.07 169.918 443.633 171.28 442.207 172.706L440.793 171.292C442.244 169.841 443.706 168.455 445.178 167.132L446.515 168.62ZM442.207 172.706C440.928 173.986 439.669 175.447 438.437 177.078L436.841 175.873C438.121 174.177 439.44 172.645 440.793 171.292L442.207 172.706ZM432.352 186.967C430.683 190.235 429.11 193.827 427.656 197.698L425.784 196.995C427.261 193.062 428.864 189.4 430.57 186.058L432.352 186.967ZM424.01 208.884C422.979 212.551 422.048 216.386 421.232 220.358L419.273 219.955C420.098 215.938 421.04 212.058 422.085 208.342L424.01 208.884ZM419.237 231.938C418.701 235.757 418.27 239.667 417.954 243.645L415.96 243.487C416.28 239.468 416.715 235.519 417.256 231.66L419.237 231.938ZM417.364 255.418C417.284 259.31 417.315 263.246 417.468 267.206L415.469 267.283C415.315 263.283 415.283 259.308 415.365 255.376L417.364 255.418ZM418.278 278.963C418.667 282.855 419.179 286.754 419.822 290.64L417.849 290.966C417.199 287.036 416.681 283.096 416.288 279.162L418.278 278.963ZM422.135 302.182C423.038 305.997 424.078 309.783 425.261 313.523L423.354 314.126C422.155 310.337 421.103 306.503 420.189 302.642L422.135 302.182ZM429.247 324.585C430.724 328.214 432.352 331.78 434.139 335.267L432.359 336.179C430.545 332.638 428.893 329.019 427.395 325.338L429.247 324.585ZM439.97 345.457C442.065 348.747 444.324 351.942 446.755 355.027L445.184 356.264C442.711 353.125 440.413 349.876 438.283 346.532L439.97 345.457ZM454.48 363.845C457.181 366.618 460.051 369.271 463.097 371.791L461.822 373.332C458.72 370.766 455.798 368.064 453.048 365.241L454.48 363.845ZM472.516 378.763C475.719 380.879 479.085 382.862 482.621 384.701L481.698 386.476C478.101 384.605 474.675 382.586 471.414 380.432L472.516 378.763ZM493.277 389.587C496.82 391.007 500.511 392.296 504.354 393.443L503.782 395.36C499.882 394.195 496.133 392.887 492.533 391.443L493.277 389.587ZM515.745 396.326C519.49 397.113 523.364 397.776 527.369 398.308L527.106 400.291C523.052 399.752 519.129 399.081 515.333 398.284L515.745 396.326ZM539.139 399.464C542.921 399.709 546.809 399.846 550.807 399.869L550.795 401.869C546.76 401.846 542.832 401.708 539.01 401.46L539.139 399.464ZM562.562 399.618C566.427 399.435 570.385 399.151 574.44 398.763L574.63 400.754C570.545 401.145 566.555 401.431 562.657 401.616L562.562 399.618ZM586.041 397.4C588.017 397.127 590.014 396.829 592.032 396.508L592.346 398.483C590.315 398.807 588.305 399.106 586.315 399.381L586.041 397.4ZM592.032 396.508C594.104 396.179 596.098 395.797 598.017 395.366L598.456 397.317C596.494 397.758 594.458 398.147 592.346 398.483L592.032 396.508ZM609.028 392.042C612.819 390.558 616.222 388.816 619.268 386.836L620.358 388.513C617.19 390.572 613.665 392.374 609.757 393.904L609.028 392.042ZM628.06 379.477C630.68 376.657 632.894 373.548 634.744 370.173L636.498 371.134C634.573 374.647 632.264 377.891 629.526 380.838L628.06 379.477ZM639.16 359.543C640.246 355.971 641.057 352.19 641.625 348.217L643.605 348.5C643.025 352.56 642.193 356.443 641.074 360.125L639.16 359.543ZM642.602 336.596C642.724 332.814 642.681 328.902 642.495 324.873L644.493 324.78C644.681 328.855 644.725 332.82 644.601 336.66L642.602 336.596ZM641.601 313.138C641.212 309.361 640.725 305.502 640.158 301.571L642.137 301.286C642.708 305.24 643.198 309.126 643.591 312.933L641.601 313.138ZM638.303 289.997C637.638 286.188 636.916 282.325 636.149 278.414L638.112 278.03C638.881 281.951 639.606 285.828 640.273 289.653L638.303 289.997ZM633.794 266.86C632.996 263.072 632.17 259.249 631.327 255.397L633.281 254.97C634.125 258.824 634.952 262.653 635.751 266.448L633.794 266.86ZM628.787 243.894C627.94 240.073 627.086 236.232 626.239 232.378L628.192 231.948C629.039 235.8 629.892 239.639 630.74 243.46L628.787 243.894ZM623.742 220.881C622.922 217.038 622.117 213.187 621.338 209.336L623.299 208.94C624.076 212.782 624.879 216.626 625.698 220.463L623.742 220.881ZM619.089 197.779C618.365 193.895 617.679 190.015 617.04 186.148L619.013 185.822C619.65 189.674 620.334 193.54 621.055 197.413L619.089 197.779ZM615.263 174.474C614.721 170.558 614.24 166.661 613.832 162.79L615.821 162.58C616.227 166.428 616.705 170.303 617.244 174.199L615.263 174.474ZM612.82 151C612.561 147.019 612.394 143.072 612.333 139.169L614.332 139.138C614.393 143.005 614.559 146.919 614.816 150.871L612.82 151ZM612.487 127.361C612.661 123.384 612.965 119.462 613.413 115.605L615.4 115.836C614.957 119.642 614.657 123.516 614.485 127.449L612.487 127.361ZM615.285 103.859C616.09 99.9436 617.074 96.1096 618.254 92.3684L620.161 92.97C619.003 96.6415 618.036 100.409 617.244 104.262L615.285 103.859ZM622.467 81.2868C624.093 77.679 625.941 74.1796 628.031 70.8002L629.732 71.852C627.69 75.1546 625.882 78.577 624.29 82.1086L622.467 81.2868ZM634.98 61.1073C637.449 58.1187 640.154 55.2516 643.11 52.5157L644.469 53.9836C641.578 56.6592 638.934 59.4615 636.522 62.3812L634.98 61.1073ZM652.263 45.0576C655.391 42.8113 658.737 40.6813 662.313 38.6746L663.292 40.4187C659.779 42.3904 656.495 44.4807 653.429 46.6822L652.263 45.0576ZM672.96 33.3718C676.404 31.8532 680.025 30.4303 683.83 29.1072L684.487 30.9962C680.731 32.3025 677.16 33.706 673.767 35.2018L672.96 33.3718ZM695.377 25.5565C698.972 24.5848 702.71 23.6906 706.594 22.8765L707.004 24.834C703.155 25.6406 699.455 26.526 695.899 27.4872L695.377 25.5565ZM718.463 20.7133C722.147 20.1366 725.949 19.6243 729.872 19.1784L730.098 21.1656C726.202 21.6085 722.427 22.117 718.772 22.6892L718.463 20.7133ZM742.01 18.0417C745.702 17.7661 749.491 17.5441 753.381 17.377L753.467 19.3752C749.597 19.5414 745.829 19.7622 742.159 20.0362L742.01 18.0417ZM765.308 17.0422C767.347 17.0142 769.41 17 771.5 17V19C769.419 19 767.365 19.0141 765.336 19.0421L765.308 17.0422Z" fill="#BFBFBF"/>
</svg>
